<svg width="27" height="35" viewBox="0 0 27 35" fill="none" xmlns="http://www.w3.org/2000/svg">
<path fill-rule="evenodd" clip-rule="evenodd" d="M13.5332 34.254C13.9476 33.8396 14.1477 33.3537 13.9905 33.1822L8.24575 27.4375C8.07427 27.266 7.60269 27.466 7.17397 27.8948C6.74526 28.3235 6.55949 28.7951 6.71668 28.9665L12.4614 34.7113C12.6329 34.8685 13.1188 34.6684 13.5332 34.254Z" fill="#BF9D64"/>
<path fill-rule="evenodd" clip-rule="evenodd" d="M12.1898 34.254C11.7753 33.8396 11.5753 33.3537 11.7325 33.1822L17.4772 27.4375C17.6487 27.266 18.1203 27.466 18.549 27.8948C18.9777 28.3235 19.1635 28.7951 18.992 28.9665L13.2472 34.7113C13.0901 34.8685 12.6042 34.6684 12.1898 34.254Z" fill="#BF9D64"/>
<path fill-rule="evenodd" clip-rule="evenodd" d="M13.2186 34.2971C12.6327 34.2971 12.1468 33.8112 12.1468 33.2253V13.2188C12.1468 12.6328 12.6327 12.147 13.2186 12.147C13.8045 12.147 14.2904 12.6328 14.2904 13.2188V33.2253C14.2904 33.8112 13.8045 34.2971 13.2186 34.2971Z" fill="#BF9D64"/>
<path fill-rule="evenodd" clip-rule="evenodd" d="M4.28712 0H22.1501C24.5223 0 26.4373 1.91491 26.4373 4.28712V20.7211C26.4373 23.0933 24.5223 25.0082 22.1501 25.0082H17.863V22.8646H22.1501C23.3362 22.8646 24.2937 21.9072 24.2937 20.7211V4.28712C24.2937 3.10102 23.3362 2.14356 22.1501 2.14356H4.28712C3.10102 2.14356 2.14356 3.10102 2.14356 4.28712V20.7211C2.14356 21.9072 3.10102 22.8646 4.28712 22.8646H8.57424V25.0082H4.28712C1.91491 25.0082 0 23.0933 0 20.7211V4.28712C0 1.91491 1.91491 0 4.28712 0Z" fill="#BF9D64"/>
</svg>
