<svg width="92" height="30" viewBox="0 0 92 30" fill="none" xmlns="http://www.w3.org/2000/svg">
<path d="M37.9727 14.7606C38.1589 14.7526 38.3584 14.8008 38.5313 14.7526C38.6377 14.7231 38.8 14.5357 38.7813 14.4634C38.6909 14.1393 38.5499 13.8341 38.1855 13.7243C37.986 13.6627 37.7812 13.6118 37.5923 13.5261C37.4939 13.4833 37.3848 13.3842 37.3529 13.2878C37.3316 13.2235 37.4593 13.1244 37.4965 13.0307C37.5418 12.9156 37.6162 12.7736 37.5817 12.6719C37.5285 12.5166 37.4008 12.388 37.1933 12.4951C36.9592 12.6156 36.7491 12.5835 36.5628 12.3853C36.5203 12.3398 36.4538 12.3077 36.3926 12.2863C35.6611 12.0131 34.9056 11.9649 34.1368 12.0533C33.541 12.1202 32.9425 12.1711 32.3466 12.2434C32.046 12.2782 31.7215 12.2836 31.4502 12.4014C30.8383 12.6719 30.1946 12.5755 29.5668 12.6451C29.2875 12.6746 29.1838 12.471 29.3221 12.2381C29.7344 11.5391 30.1547 10.8456 30.567 10.144C30.6761 9.95921 30.7532 9.75837 30.8543 9.56825C30.9474 9.39686 31.0565 9.23352 31.1522 9.06481C31.2879 8.82916 31.4023 8.57744 31.5566 8.35518C31.6922 8.15702 31.8917 8.00438 32.0221 7.80355C32.2748 7.41794 32.4929 7.00555 32.7376 6.61458C32.9185 6.32805 33.1074 6.0442 33.3175 5.78177C33.9639 4.97038 34.3071 3.90728 35.2966 3.38777C35.3445 3.36367 35.3924 3.3235 35.4217 3.27798C35.568 3.03697 35.7515 3.00216 36.0069 3.11463C36.092 3.15212 36.2676 3.11731 36.3261 3.05036C36.3873 2.97806 36.4006 2.80132 36.3527 2.71831C36.2463 2.52818 36.1213 2.31931 35.9484 2.20684C35.5467 1.94709 35.1211 1.71144 34.6822 1.51863C34.1049 1.26692 33.9506 1.3178 33.525 1.77839C32.9877 2.35948 32.4211 2.90308 32.0487 3.63681C31.7295 4.26878 31.1549 4.73741 30.8649 5.42026C30.6309 5.9719 30.2611 6.46462 29.9366 6.97341C29.8568 7.09659 29.7131 7.17693 29.5721 7.30011C29.3301 6.64939 29.5003 6.15935 29.8568 5.69876C29.9818 5.53809 30.0829 5.34528 30.1467 5.1498C30.2505 4.83649 30.4979 4.55532 30.3781 4.18577C30.3675 4.15364 30.4074 4.10276 30.4287 4.06527C30.6495 3.6743 30.8756 3.28334 31.0911 2.88702C31.123 2.8281 31.1469 2.7076 31.1177 2.6835C31.0618 2.6353 30.9501 2.60049 30.8862 2.62459C30.7479 2.67814 30.6122 2.75848 30.4979 2.85488C30.0935 3.19497 29.5482 3.38777 29.3939 3.99029C29.362 4.1215 29.1891 4.21255 29.0986 4.33841C28.9949 4.48569 28.9231 4.6544 28.8167 4.80168C28.7449 4.90344 28.6411 4.98109 28.5533 5.06946C28.4762 4.9677 28.3804 4.87666 28.3246 4.76419C28.2767 4.66778 28.2793 4.54728 28.2474 4.38393C27.6649 4.85791 27.2526 5.37474 27.1249 6.04955C27.0663 6.36286 27.0956 6.6842 26.8296 6.92521C26.8057 6.94663 26.787 7.02161 26.803 7.04036C26.9573 7.23584 26.7791 7.34296 26.6913 7.46881C26.545 7.67769 26.3721 7.86781 26.4359 8.1597C26.4519 8.22665 26.4093 8.31234 26.3774 8.37928C26.1406 8.86397 25.8933 9.33795 25.6645 9.82264C25.5182 10.1306 25.3985 10.4493 25.2628 10.7652C25.1059 11.1294 24.9542 11.4963 24.792 11.8578C24.6909 12.0854 24.5818 12.3104 24.4621 12.5299C24.361 12.712 24.1589 12.8807 24.1509 13.0602C24.1349 13.427 23.9328 13.6761 23.7625 13.9546C23.7333 14.0001 23.696 14.0429 23.6721 14.0911C23.422 14.5624 23.1773 15.0364 22.914 15.5372C23.0948 15.8478 23.4433 15.8906 23.6934 15.572C23.8716 15.3444 24.0392 15.1087 24.1961 14.8704C24.3185 14.6803 24.4754 14.6053 24.6962 14.6213L25.9704 14.6937C26.255 14.7097 26.3428 14.8597 26.2896 15.1382C26.1885 15.6604 25.7682 15.7701 25.3612 15.896C25.0473 15.9924 24.7202 16.054 24.4169 16.1745C23.704 16.461 22.9938 16.7556 22.2968 17.0823C21.8659 17.2858 21.3339 17.2349 20.9774 17.6259C20.9535 17.65 20.887 17.6313 20.8524 17.65C20.6316 17.7812 20.4002 17.9044 20.2007 18.0651C20.1422 18.1133 20.1288 18.3141 20.1767 18.3918C20.4321 18.7934 21.4509 19.0987 21.9084 18.9488C22.2277 18.847 22.5575 18.78 22.882 18.697C22.9778 18.6729 23.0736 18.6515 23.1667 18.6221C23.5683 18.4962 23.9673 18.3596 24.3743 18.2445C24.8452 18.1133 25.3267 18.0222 25.7922 17.8749C26.3268 17.7062 26.8482 17.4947 27.3749 17.2965C27.5664 17.2242 27.75 17.1198 27.9442 17.0555C28.2847 16.9404 28.6305 16.852 28.971 16.7368C29.3753 16.6003 29.7663 16.4235 30.176 16.3111C30.7 16.1665 31.2586 16.137 31.7587 15.9415C32.3253 15.7193 32.9132 15.7005 33.4878 15.5747C33.8363 15.4997 34.1768 15.3738 34.5199 15.2747C34.7354 15.2132 34.9482 15.1489 35.1663 15.1167C35.8792 15.0123 36.5948 14.9186 37.313 14.8275C37.5338 14.7874 37.7546 14.7686 37.9727 14.7606ZM26.662 12.7897C26.5982 12.8379 26.5024 12.8459 26.3827 12.8807C26.4253 12.9825 26.4332 13.0628 26.4785 13.0977C26.8296 13.3628 26.654 13.652 26.5077 13.9171C26.3534 14.1982 26.0635 14.0858 25.8214 14.0885C25.7496 14.0911 25.6698 14.0242 25.6033 14.0376C25.4543 14.0697 25.2947 14.1152 25.2601 13.9198C25.2335 13.7725 25.2522 13.5931 25.3107 13.4565C25.4384 13.1566 25.6326 12.8861 25.7523 12.5835C25.8294 12.3853 25.9385 12.3023 26.1353 12.2943C26.3002 12.2863 26.4705 12.2327 26.6221 12.2648C26.7312 12.2889 26.8163 12.4255 26.9147 12.5112C26.8323 12.6076 26.7604 12.712 26.662 12.7897ZM33.1446 24.9123C32.9105 24.6874 32.6339 24.516 32.312 24.3955C31.9902 24.275 31.639 24.2161 31.2586 24.2161C30.8782 24.2161 30.5271 24.275 30.2052 24.3955C29.8834 24.516 29.6067 24.6874 29.3726 24.9123C29.1385 25.1373 28.955 25.4077 28.8247 25.7264C28.6943 26.045 28.6278 26.4012 28.6278 26.7948C28.6278 27.1858 28.6943 27.542 28.8247 27.8606C28.955 28.1793 29.1385 28.4524 29.3726 28.6747C29.6067 28.8996 29.8834 29.071 30.2052 29.1915C30.5271 29.312 30.8756 29.3709 31.2586 29.3709C31.639 29.3709 31.9902 29.312 32.312 29.1915C32.6339 29.071 32.9105 28.8996 33.1446 28.6747C33.3787 28.4498 33.5596 28.1793 33.6926 27.8606C33.823 27.542 33.8895 27.1858 33.8895 26.7948C33.8895 26.4012 33.8256 26.045 33.6926 25.7264C33.5623 25.4077 33.3787 25.1346 33.1446 24.9123ZM32.6658 27.4295C32.594 27.6223 32.4929 27.7883 32.3599 27.9276C32.2269 28.0695 32.0673 28.1793 31.8811 28.257C31.6949 28.3346 31.4874 28.3748 31.2586 28.3748C31.0299 28.3748 30.8224 28.3346 30.6362 28.257C30.45 28.1793 30.2904 28.0695 30.1574 27.9276C30.0244 27.7857 29.9233 27.6196 29.8515 27.4295C29.7796 27.2367 29.7451 27.0251 29.7451 26.7948C29.7451 26.5672 29.7796 26.3584 29.8515 26.1629C29.9233 25.9674 30.0244 25.8014 30.1574 25.6594C30.2904 25.5175 30.45 25.4077 30.6362 25.3301C30.8224 25.2524 31.0299 25.2122 31.2586 25.2122C31.4874 25.2122 31.6949 25.2524 31.8811 25.3301C32.0673 25.4077 32.2269 25.5175 32.3599 25.6594C32.4929 25.8014 32.594 25.9674 32.6658 26.1629C32.7376 26.3584 32.7722 26.5672 32.7722 26.7948C32.7722 27.0251 32.7376 27.2367 32.6658 27.4295ZM25.8267 26.7145C26.005 26.4708 26.0954 26.1763 26.0954 25.8308C26.0954 25.5443 26.0449 25.306 25.9465 25.1132C25.848 24.9204 25.715 24.7704 25.5474 24.6552C25.3799 24.5428 25.1857 24.4598 24.9622 24.4116C24.7388 24.3634 24.5047 24.3393 24.2573 24.3393H22.3713V29.2478H23.4433V27.2849H23.9727L24.9915 29.2478H26.279L25.0394 27.1751C25.3852 27.1108 25.6459 26.9555 25.8267 26.7145ZM24.8931 26.1361C24.8345 26.2111 24.7627 26.2646 24.6776 26.2994C24.5898 26.3343 24.494 26.3557 24.385 26.361C24.2786 26.3691 24.1748 26.3717 24.0791 26.3717H23.446V25.2551H24.1482C24.244 25.2551 24.3424 25.2631 24.4435 25.2738C24.5446 25.2872 24.6324 25.314 24.7122 25.3542C24.7893 25.3943 24.8532 25.4506 24.9064 25.5229C24.9569 25.5978 24.9808 25.6969 24.9808 25.8228C24.9782 25.9567 24.9516 26.0611 24.8931 26.1361ZM61.3921 2.03814C61.5357 1.98994 61.666 1.89353 61.8709 1.77303C61.7086 1.67395 61.5916 1.55612 61.5437 1.58023C61.4133 1.64182 61.3096 1.765 61.1979 1.86408C61.2617 1.92835 61.3495 2.05153 61.3921 2.03814ZM21.1184 9.75838C21.3019 9.65662 21.4749 9.51737 21.3817 9.28707C21.2886 9.0541 21.1051 8.91485 20.8258 8.88272C20.2166 8.81845 19.6101 8.68456 19.001 8.64171C18.336 8.59619 17.6656 8.61761 16.9979 8.61761C16.5723 8.61493 16.1467 8.62832 15.7238 8.631C15.6386 8.63368 15.5508 8.61226 15.4657 8.62297C15.0641 8.67117 14.6597 8.72205 14.258 8.7756C13.8963 8.82381 13.5398 8.88807 13.1781 8.92021C13.0317 8.9336 12.8455 8.92021 12.7418 8.83719C12.5662 8.70062 12.7072 8.53995 12.8056 8.40606C12.8455 8.3525 12.8934 8.3043 12.928 8.25075C13.1408 7.91066 13.3111 7.53308 13.5744 7.23584C13.8218 6.95467 13.7925 6.36822 14.391 6.43784C14.4416 6.4432 14.5081 6.32002 14.564 6.25307C15.1279 5.56219 15.8169 5.08553 16.7239 4.99716C17.0644 4.96503 17.4076 4.95164 17.7454 4.91147C18.0566 4.87398 18.3652 4.7749 18.6738 4.76954C19.0595 4.76151 19.4505 4.97306 19.8256 4.70527C19.8708 4.67314 19.9586 4.68653 20.0198 4.7026C20.5864 4.86059 21.1184 4.5928 21.669 4.57406C21.8845 4.56603 22.1372 4.52854 22.3128 4.61958C22.6799 4.80971 23.0549 4.80168 23.4407 4.79632C23.6827 4.79364 23.9274 4.80168 24.1695 4.8231C24.6004 4.86059 24.9915 5.03197 25.4703 4.80435C25.7523 4.67046 26.1646 4.72134 26.4332 4.45891C26.5609 4.33305 26.7365 4.13222 26.7099 3.99832C26.678 3.83497 26.4785 3.61807 26.3162 3.58326C25.9065 3.48953 25.4756 3.48953 25.0527 3.44401C24.4728 3.38242 23.8929 3.32083 23.3156 3.24049C23.1108 3.21104 22.9086 3.13606 22.7198 3.04769C22.64 3.0102 22.5708 2.88969 22.5495 2.79597C22.5389 2.74777 22.6373 2.6353 22.7038 2.61923C23.0815 2.52551 23.4646 2.45053 23.8476 2.37555C23.9008 2.36483 23.9647 2.36483 24.0099 2.38626C24.2972 2.51212 24.5738 2.6594 24.8638 2.77455C24.9675 2.81471 25.1032 2.82542 25.2043 2.79061C25.2575 2.77187 25.3054 2.61387 25.2868 2.53622C25.2016 2.19345 25.3932 2.04082 25.6618 1.9337C26.2816 1.69002 26.9041 1.44901 27.5265 1.21336C27.5744 1.19462 27.6356 1.20533 27.6915 1.20265C27.9096 1.19194 28.1304 1.18658 28.3512 1.16516C28.6012 1.14106 28.7316 0.878629 28.548 0.717958C28.3059 0.50373 28.0266 0.289502 27.726 0.195778C27.3377 0.0752743 26.9121 0.0833079 26.5051 0.0163617C25.872 -0.0880744 25.2841 0.348415 24.6457 0.174355C24.6377 0.171677 24.6244 0.182388 24.6137 0.185066C23.954 0.393938 23.3236 0.525153 22.6107 0.241301C22.1026 0.0404623 21.5041 0.0217174 20.9455 0.0217174C19.5543 0.0270731 18.1551 0.011006 16.7904 0.348415C16.168 0.501052 15.503 0.450173 14.9071 0.736703C14.8619 0.758126 14.798 0.744736 14.7448 0.75277C14.2048 0.849173 13.6622 0.937542 13.1249 1.04733C12.654 1.14374 12.1912 1.27763 11.7203 1.37671C11.1883 1.48918 10.6483 1.55612 10.1216 1.68198C9.59758 1.80784 9.09482 2.02743 8.56813 2.12115C8.08931 2.20684 7.6504 2.33806 7.25937 2.62994C7.20883 2.66743 7.13966 2.6835 7.07848 2.7076C6.464 2.94325 5.83356 3.14409 5.2377 3.41991C4.69505 3.67163 4.19495 3.67966 3.67091 3.41187C3.48471 3.31547 3.30382 3.27263 3.30116 3.60468C3.30116 3.6743 3.15752 3.80016 3.0724 3.8082C2.5457 3.85907 2.01634 3.8805 1.48965 3.92334C1.41782 3.9287 1.34866 3.99297 1.2795 4.03046C1.32206 4.10008 1.34866 4.18845 1.40718 4.2313C1.59339 4.36787 1.81152 4.46427 1.98442 4.61423C2.32757 4.91147 2.692 5.07482 3.15752 5.01323C3.28786 4.99716 3.44481 5.07214 3.56717 5.14176C3.92628 5.34528 4.25347 5.64252 4.63653 5.76302C5.07278 5.90227 5.55425 5.9478 5.97721 5.60503C6.14213 5.47114 6.35228 5.35599 6.55711 5.31047C7.00666 5.21139 7.46951 5.16051 7.92705 5.09892C8.17976 5.06411 8.41118 5.16586 8.39522 5.43365C8.37128 5.85139 8.50695 6.10043 8.90064 6.24236C9.00172 6.27985 9.13473 6.48069 9.10813 6.56102C9.02832 6.81542 8.89 7.05375 8.75965 7.2894C8.50961 7.74463 8.26488 8.20255 7.99355 8.64171C7.85789 8.8613 7.65838 9.04339 7.49611 9.24691C7.37641 9.39419 7.23809 9.53611 7.16094 9.70482C6.96676 10.1333 6.79917 10.5724 6.25386 10.6581C6.18203 10.6715 6.11819 10.7304 6.04903 10.7626C5.30953 11.1134 4.57002 11.4642 3.83052 11.8123C3.22934 12.0935 2.62018 12.3639 2.019 12.6505C1.60669 12.8486 1.21566 13.095 0.790045 13.2583C0.484135 13.3761 0.406993 13.5341 0.524036 13.81C0.63044 14.0617 0.516056 14.2143 0.32985 14.3375C0.228767 14.4098 0.109063 14.4446 0 14.4928V14.8918C0.140984 14.948 0.281969 15.0016 0.422953 15.0578C0.787385 15.2051 1.10393 15.5265 1.56413 15.3149C1.79024 15.2105 2.0456 15.1703 2.29033 15.1087C2.42866 15.0739 2.58826 15.0793 2.7053 15.0123C3.19742 14.7258 3.74008 14.6053 4.28805 14.5062C4.5115 14.466 4.74293 14.6508 4.67377 14.8249C4.53544 15.1837 4.36254 15.5265 4.22953 15.8853C3.96618 16.5896 3.35436 17.0984 3.16284 17.8374C3.10166 18.0758 3.13358 18.3516 3.02451 18.5605C2.81437 18.9648 2.90215 19.3719 2.90481 19.7816C2.90481 19.8646 2.89417 19.9904 2.84363 20.0252C2.48452 20.2555 2.5191 20.5126 2.55634 20.925C2.60156 21.4151 2.55102 21.9801 2.27171 22.4782C2.10413 22.7781 1.97112 23.1503 2.31427 23.5091C2.49516 23.6993 2.62816 24.0152 2.63614 24.2803C2.6521 24.7972 2.56964 25.314 2.5191 25.8308C2.48984 26.1361 2.42068 26.4387 2.40738 26.7466C2.39141 27.0867 2.41536 27.4322 2.42866 27.7776C2.44196 28.1847 2.66008 28.4846 2.95003 28.8327C3.00057 28.6854 3.04314 28.6077 3.05112 28.5274C3.10432 27.9597 3.03516 27.3893 3.20806 26.8189C3.40757 26.1575 3.48737 25.4613 3.64697 24.7865C3.81722 24.0608 4.01673 23.3431 4.20559 22.6201C4.22421 22.5451 4.24815 22.4728 4.27741 22.4005C4.39446 22.1059 4.50618 21.8087 4.63653 21.5195C4.68175 21.4177 4.77751 21.3374 4.84933 21.249C4.91317 21.3695 5.04352 21.4954 5.03022 21.6079C4.9983 21.889 4.90519 22.1622 4.83071 22.4353C4.68441 22.9762 4.50618 23.5118 4.3918 24.0581C4.26677 24.6552 4.20559 25.2685 3.87042 25.804C3.70816 26.0638 3.87574 26.2432 4.08855 26.3798C4.31997 26.5271 4.4716 26.3985 4.57268 26.2084C4.64185 26.0772 4.65781 25.9192 4.69505 25.7719C4.79081 25.3917 4.86795 25.006 4.985 24.6311C5.10204 24.2616 5.25632 23.9055 5.39465 23.5413C5.59682 23.0003 5.78302 22.4541 6.01179 21.9238C6.12351 21.6668 6.33898 21.4579 6.47198 21.2062C6.62893 20.9089 6.74597 20.593 6.88164 20.285C6.90292 20.2368 6.94282 20.1913 6.9508 20.1404C7.04922 19.5298 7.25671 18.9621 7.5706 18.4319C7.88715 17.9017 7.94035 17.2028 8.46172 16.9538C8.57079 16.528 8.60271 16.1825 8.74635 15.8906C9.05226 15.2694 9.41669 14.6803 9.75452 14.0751C9.78379 14.0188 9.78911 13.9492 9.79709 13.8823C9.86359 13.4565 10.1323 13.1673 10.5073 13.0387C10.9329 12.8941 11.3905 12.8406 11.8374 12.7495C11.9225 12.7308 12.0183 12.7388 12.0927 12.704C12.5556 12.4925 12.9972 12.2247 13.5372 12.2809C13.5904 12.2863 13.6622 12.2863 13.6968 12.2568C14.016 11.9863 14.4177 12.0265 14.7874 11.9355C15.3008 11.8096 15.8009 11.6275 16.3116 11.4802C16.434 11.4427 16.5723 11.4615 16.7 11.4401C17.1336 11.3651 17.5645 11.2821 17.9981 11.2044C18.1258 11.1803 18.2562 11.1589 18.3838 11.1455C18.57 11.1268 18.7562 11.116 18.9425 11.1027C19.267 11.0759 19.5942 11.0571 19.9187 11.017C19.9985 11.0063 20.1209 10.9447 20.1395 10.8804C20.3097 10.3582 20.6609 10.0128 21.1184 9.75838ZM8.2037 14.1099C8.00685 14.5464 7.76744 14.9641 7.56262 15.3979C7.30725 15.9415 7.06518 16.4932 6.82311 17.0448C6.74597 17.2189 6.69543 17.4036 6.61297 17.575C6.55711 17.6928 6.46666 17.7892 6.38952 17.8964C6.31504 17.7839 6.24322 17.6714 6.19267 17.5911C6.21661 17.4652 6.21129 17.3876 6.24322 17.3367C6.63425 16.702 6.73267 15.9415 7.05188 15.2988C7.27799 14.8409 7.46951 14.3562 7.7302 13.9144C7.75148 13.8769 7.78872 13.8394 7.82596 13.8233C7.94567 13.7805 8.06803 13.7484 8.1904 13.7109C8.19838 13.8474 8.25158 14.0001 8.2037 14.1099ZM19.0888 24.6472C18.9212 24.5347 18.7243 24.4544 18.5009 24.4089C18.2774 24.3634 18.038 24.3393 17.7853 24.3393H15.9765V29.2478H17.0485V27.3331H17.8332C18.0912 27.3331 18.328 27.309 18.5488 27.2608C18.7695 27.2126 18.9584 27.1296 19.1207 27.0144C19.2803 26.8993 19.408 26.744 19.4984 26.5485C19.5889 26.3557 19.6367 26.1147 19.6367 25.8281C19.6367 25.5363 19.5862 25.2953 19.4878 25.1024C19.3893 24.915 19.2563 24.7624 19.0888 24.6472ZM18.4557 26.1174C18.4131 26.1923 18.3546 26.2539 18.2828 26.2968C18.2109 26.3396 18.1311 26.3717 18.0407 26.3905C17.9502 26.4092 17.8571 26.42 17.7614 26.42H17.0458V25.2551H17.5965C17.6975 25.2551 17.8013 25.2604 17.913 25.2712C18.0221 25.2819 18.1231 25.3086 18.2109 25.3488C18.3014 25.3917 18.3732 25.4506 18.4317 25.5255C18.4902 25.6005 18.5168 25.7023 18.5168 25.8281C18.5195 25.946 18.4982 26.0424 18.4557 26.1174ZM63.9005 29.2478H64.9725V24.3393H63.9005V29.2478ZM69.9841 11.7909C70.5507 12.2434 71.0907 12.7308 71.6547 13.186C71.8355 13.3333 72.1867 13.2315 72.3064 12.9798C72.3516 12.8861 72.2585 12.6746 72.1654 12.5755C71.8887 12.2702 71.527 12.0212 71.6467 11.5204C71.6547 11.4829 71.6334 11.4294 71.6068 11.3999C71.3674 11.1187 71.1227 10.8456 70.8859 10.5671C70.8088 10.476 70.7423 10.3716 70.6784 10.2698C70.5561 10.0797 70.4603 9.87084 70.3166 9.69946C70.1331 9.47988 69.9309 9.26833 69.7022 9.09695C69.4335 8.89343 69.1462 8.7033 68.8403 8.56941C68.4998 8.42213 68.1939 8.26414 67.9571 7.833C68.154 7.8571 68.2897 7.84371 68.4014 7.88924C68.7711 8.03652 69.1116 8.27752 69.5372 7.99099C69.649 7.91602 69.8671 7.99903 70.0347 8.01777C70.1092 8.02581 70.181 8.07401 70.2555 8.07133C70.8992 8.05526 71.5429 8.0392 72.1867 8.00974C72.2665 8.00706 72.3543 7.95083 72.4208 7.89995C72.9395 7.5063 73.4422 7.09124 73.9716 6.71902C74.3786 6.43249 74.7643 6.15131 74.8228 5.60235C74.8308 5.54076 74.8813 5.48453 74.9159 5.42829C75.2671 4.90344 75.1899 3.61539 74.7138 3.22442C74.0966 2.71563 73.5752 2.05956 72.7772 1.80249C72.3915 1.67931 72.0005 1.57219 71.6041 1.47847C70.838 1.29905 70.0692 1.1357 69.3005 0.969676C69.2473 0.958964 69.1914 0.958964 69.1356 0.961642C68.2232 1.00449 67.3107 1.0634 66.3983 1.07947C66.2068 1.08215 65.9701 0.975031 65.8291 0.838461C65.6535 0.672435 65.5391 0.71528 65.3689 0.811683C65.1614 0.932186 64.9486 1.07411 64.7198 1.11964C64.3447 1.19462 63.959 1.21336 63.576 1.2321C63.294 1.24549 62.9908 1.15445 62.8817 1.55612C62.8604 1.63378 62.7035 1.73554 62.6237 1.72483C62.2114 1.66859 62.0491 1.88282 61.9081 2.23362C61.8044 2.48802 61.815 2.62459 62.0145 2.80668C62.0917 2.87898 62.1316 3.12534 62.073 3.19765C61.7991 3.54041 61.5011 3.86979 61.1793 4.16435C60.9372 4.38393 60.618 4.52854 60.6579 4.93557C60.6632 4.98377 60.626 5.04536 60.5914 5.08285C60.2881 5.40955 60.0221 5.79784 59.663 6.0442C58.982 6.51014 58.6708 7.27333 58.1095 7.82497C58.0803 7.85442 58.0803 7.90798 58.059 7.94547C57.785 8.43016 57.5642 8.96038 57.2211 9.38883C56.8832 9.80925 56.5906 10.2324 56.439 10.7545C56.3751 10.9741 56.1916 11.191 56.2155 11.3919C56.2794 11.9435 56.1783 12.4523 56.0426 12.9825C55.8963 13.5475 55.8298 14.1447 56.0692 14.7097C56.1065 14.7981 56.3219 14.9052 56.3698 14.8757C56.5959 14.7258 56.7875 14.5303 57.0003 14.3562C57.0987 14.2786 57.2237 14.1527 57.3221 14.1661C57.8462 14.2331 58.067 13.9599 58.1547 13.4967C58.1734 13.4002 58.2 13.2985 58.2478 13.2128C58.458 12.8433 58.4553 12.3773 58.841 12.072C59.1336 11.8417 59.3358 11.4936 59.5699 11.1937C59.6151 11.1348 59.6444 11.0518 59.6497 10.9768C59.6843 10.5698 59.9397 10.4064 60.3041 10.3448C60.5621 10.302 60.7856 10.2136 60.9239 9.95654C60.9718 9.86549 61.1101 9.7798 61.2138 9.77176C61.541 9.75302 61.69 9.53879 61.8336 9.28975C62.0172 8.97644 62.1661 8.61761 62.4215 8.37661C63.0706 7.75534 63.5999 7.04839 64.0814 6.29592C64.1346 6.2129 64.2756 6.13257 64.3634 6.14328C64.4565 6.15399 64.5735 6.2611 64.6134 6.35483C64.656 6.45659 64.6533 6.60655 64.6081 6.71098C64.4512 7.06714 64.2942 7.42865 64.092 7.75802C63.7622 8.29895 63.991 8.82916 64.6108 8.90146C64.8076 8.92556 65.0284 8.89343 65.1986 8.97109C65.9594 9.31653 66.7122 9.68875 67.457 10.0637C67.8082 10.2404 68.1566 10.4252 68.4785 10.6501C68.9866 11.017 69.492 11.3972 69.9841 11.7909ZM66.7122 6.1165C66.5473 6.10847 66.3824 6.1165 66.2201 6.10579C65.861 6.08169 65.4912 6.08972 65.1454 6.00403C64.7331 5.90227 64.6799 5.6934 64.9353 5.35064C65.1055 5.12302 65.313 4.9195 65.4966 4.69992C65.8849 4.23665 66.268 3.76803 66.6617 3.30744C66.7282 3.22978 66.8293 3.14409 66.9224 3.1307C67.1565 3.09589 67.332 3.0343 67.4251 2.77722C67.4544 2.69421 67.6433 2.6353 67.763 2.62994C68.287 2.60316 68.8004 2.60852 69.3244 2.4532C69.6303 2.36216 70.024 2.55764 70.3725 2.64333C70.6119 2.70224 70.838 2.8281 71.0801 2.87095C71.6015 2.96467 71.8834 3.38777 71.7291 3.89924C71.7212 3.92067 71.7132 3.94209 71.7158 3.96351C71.8169 4.71866 71.2849 5.13373 70.8327 5.57558C70.564 5.838 70.2714 6.07633 69.9602 6.28253C69.8086 6.38429 69.5904 6.38429 69.359 6.44052C69.1622 6.3709 68.9547 6.26111 68.7392 6.22897C68.4386 6.18345 68.1274 6.20219 67.8215 6.18612C67.4517 6.16738 67.082 6.13792 66.7122 6.1165ZM72.2665 24.9123C72.0324 24.6874 71.7557 24.516 71.4339 24.3955C71.112 24.275 70.7609 24.2161 70.3805 24.2161C70.0001 24.2161 69.649 24.275 69.3271 24.3955C69.0052 24.516 68.7286 24.6874 68.4945 24.9123C68.2604 25.1373 68.0795 25.4077 67.9465 25.7264C67.8162 26.045 67.7497 26.4012 67.7497 26.7948C67.7497 27.1858 67.8162 27.542 67.9465 27.8606C68.0768 28.1793 68.2604 28.4524 68.4945 28.6747C68.7286 28.8996 69.0052 29.071 69.3271 29.1915C69.649 29.312 69.9974 29.3709 70.3805 29.3709C70.7609 29.3709 71.112 29.312 71.4339 29.1915C71.7557 29.071 72.0324 28.8996 72.2665 28.6747C72.5006 28.4498 72.6841 28.1793 72.8145 27.8606C72.9448 27.542 73.0113 27.1858 73.0113 26.7948C73.0113 26.4012 72.9448 26.045 72.8145 25.7264C72.6815 25.4077 72.5006 25.1346 72.2665 24.9123ZM71.7877 27.4295C71.7158 27.6223 71.6148 27.7883 71.4818 27.9276C71.3488 28.0695 71.1891 28.1793 71.0029 28.257C70.8167 28.3346 70.6092 28.3748 70.3805 28.3748C70.1517 28.3748 69.9442 28.3346 69.758 28.257C69.5718 28.1793 69.4122 28.0695 69.2792 27.9276C69.1462 27.7857 69.0451 27.6196 68.9733 27.4295C68.9015 27.2367 68.8669 27.0251 68.8669 26.7948C68.8669 26.5672 68.9015 26.3584 68.9733 26.1629C69.0451 25.9674 69.1462 25.8014 69.2792 25.6594C69.4122 25.5175 69.5718 25.4077 69.758 25.3301C69.9442 25.2524 70.1517 25.2122 70.3805 25.2122C70.6092 25.2122 70.8167 25.2524 71.0029 25.3301C71.1891 25.4077 71.3488 25.5175 71.4818 25.6594C71.6148 25.8014 71.7158 25.9674 71.7877 26.1629C71.8595 26.3584 71.8941 26.5672 71.8941 26.7948C71.8941 27.0251 71.8595 27.2367 71.7877 27.4295ZM91.9085 14.1527C92.1506 13.4029 91.9032 12.6023 91.2728 12.1497C91.1877 12.0881 91.1291 11.9863 91.0679 11.898C90.9482 11.7266 90.8658 11.5177 90.7168 11.3865C90.3018 11.025 89.8682 10.6876 89.4293 10.3582C89.1766 10.1681 88.9026 9.99938 88.626 9.84942C87.9902 9.50398 87.3385 9.18264 86.7054 8.83184C86.4234 8.67652 86.4314 8.33376 86.7267 8.21058C87.0459 8.07669 87.397 8.01242 87.7322 7.91869C87.9078 7.86781 88.0966 7.83836 88.2589 7.75534C88.6047 7.57325 88.9239 7.33224 89.2777 7.16622C89.6634 6.9868 89.8949 6.68688 90.105 6.34144C90.2646 6.07901 90.2061 5.90227 89.988 5.72286C89.4932 5.31315 89.0676 4.84452 88.7031 4.30895C88.5648 4.10544 88.3467 3.92067 88.1232 3.82158C87.7482 3.6502 87.3358 3.56183 86.9475 3.42259C86.8278 3.37974 86.7107 3.30476 86.6176 3.21907C86.3676 2.99145 86.1255 2.78794 85.7425 2.86291C85.5775 2.89505 85.378 2.87363 85.2211 2.81204C84.5773 2.55764 83.9203 2.52015 83.2446 2.61923C83.1515 2.63262 83.0478 2.60049 82.952 2.58174C82.6514 2.52015 82.3509 2.40232 82.0503 2.40232C81.63 2.40232 81.2044 2.29521 80.7814 2.51212C80.5952 2.60852 80.3132 2.51479 80.0738 2.50676C79.9568 2.50141 79.8397 2.46392 79.728 2.48266C79.5179 2.52015 79.3157 2.60316 79.1056 2.64065C78.8688 2.68082 78.7039 2.76919 78.6081 3.01287C78.5124 3.24852 78.3873 3.47882 78.2357 3.68501C77.9005 4.14293 77.5414 4.58477 77.1983 5.03465C77.1664 5.07482 77.1664 5.13909 77.1397 5.18461C77.036 5.37206 76.9429 5.56486 76.8232 5.73892C76.6237 6.02278 76.4003 6.29056 76.1954 6.57173C76.0544 6.76722 75.9268 6.97341 75.7937 7.17425C75.69 7.32957 75.5809 7.4822 75.4878 7.64555C75.2431 8.06062 74.9984 8.47569 74.767 8.89878C74.6845 9.04874 74.5568 9.25762 74.602 9.37544C74.7191 9.67536 74.6632 9.90566 74.5116 10.1601C74.461 10.2457 74.4823 10.3743 74.4637 10.4814C74.4424 10.6099 74.4318 10.7519 74.3786 10.8643C74.2695 11.0946 74.1312 11.3088 74.0088 11.5284C73.8705 11.7775 73.9397 11.906 74.2137 11.9863C74.3679 12.0292 74.5249 12.1015 74.6499 12.1979C75.0064 12.471 75.2777 12.4335 75.5357 12.0533C75.7219 11.7802 75.8948 11.4963 76.0997 11.2365C76.2194 11.0866 76.4109 10.9929 76.5279 10.8429C76.8205 10.4707 77.0919 10.0797 77.3685 9.69411C77.6186 9.34331 77.8527 8.9818 78.1054 8.631C78.6081 7.93744 79.1135 7.24655 79.6269 6.5637C79.885 6.22094 80.2095 5.91834 80.4223 5.55148C80.7069 5.06411 81.098 4.77758 81.6353 4.67314C82.1035 4.58209 82.5743 4.62226 83.0505 4.43749C83.5771 4.23397 84.1783 4.12418 84.7157 4.52318C84.7902 4.57942 84.9045 4.57942 84.995 4.61958C85.4499 4.81239 85.91 4.99448 86.3463 5.21942C86.4341 5.26495 86.5112 5.55148 86.4633 5.60235C86.1947 5.89156 85.926 6.21023 85.5855 6.38964C85.0322 6.67885 84.4257 6.87433 83.8378 7.09392C83.7261 7.13676 83.5851 7.12605 83.4628 7.10463C83.2287 7.06446 83.0026 6.99483 82.7711 6.94396C82.3668 6.85559 81.9572 6.78329 81.5528 6.68688C81.2283 6.60922 80.9117 6.57709 80.4968 6.71366C80.8585 6.98145 80.691 7.15015 80.4888 7.27869C80.3052 7.39651 80.3079 7.50095 80.3904 7.6884C80.7069 8.40874 81.2709 8.86665 81.9492 9.1987C82.3535 9.39687 82.7658 9.57628 83.1808 9.74766C83.516 9.88691 83.8964 9.95118 84.189 10.1467C84.8008 10.5644 85.4179 10.9473 86.1202 11.2071C86.5591 11.3678 86.9608 11.6329 87.3811 11.8498C87.7109 12.0185 88.07 12.147 88.3733 12.3586C89.009 12.8084 89.6395 13.2744 90.2274 13.7859C90.4774 14.0054 90.7062 14.3321 90.7833 14.6508C90.8658 14.9909 90.9589 15.173 91.3153 15.1516C91.3579 15.1489 91.4031 15.165 91.4457 15.173C91.8234 15.2506 91.9724 15.0819 91.9006 14.7017C91.8633 14.5223 91.8553 14.3188 91.9085 14.1527ZM52.2972 12.4202C52.7308 12.4603 53.1644 12.5219 53.598 12.5567C53.6991 12.5648 53.8055 12.4978 53.9092 12.4657C53.8587 12.3505 53.8401 12.1845 53.7523 12.1309C53.5129 11.9863 53.2549 11.8417 52.9835 11.7855C52.4568 11.6757 51.9168 11.6168 51.3822 11.5552C50.9273 11.5043 50.4724 11.4776 50.0175 11.4401C49.7356 11.4186 49.4509 11.3812 49.169 11.3785C48.7513 11.3731 48.3337 11.4053 47.9187 11.3972C47.1633 11.3838 46.4052 11.3303 45.6497 11.3329C44.9022 11.3356 44.1521 11.3945 43.4046 11.416C43.3008 11.4186 43.1944 11.3329 43.0907 11.2901C43.1359 11.1964 43.1625 11.0866 43.2264 11.0116C43.6998 10.4519 44.0909 9.83871 44.3409 9.1505C44.5936 8.45158 45.0937 8.13828 45.804 8.07133C46.0274 8.04991 46.2429 7.94815 46.461 7.88656C46.5541 7.85978 46.6525 7.82765 46.7483 7.82765C47.3787 7.81426 48.0172 7.87049 48.6343 7.78212C49.294 7.6884 49.9351 7.46346 50.5815 7.28404C50.9246 7.19032 51.2279 6.9627 51.6269 7.04571C51.7306 7.06714 51.8796 6.87969 52.0046 6.78864C51.9195 6.67349 51.8477 6.54228 51.7413 6.44588C51.6854 6.395 51.5737 6.40303 51.4886 6.38429C50.507 6.17006 49.4935 6.42713 48.5146 6.17809C48.4348 6.15667 48.3311 6.16738 48.2539 6.20219C47.6607 6.46462 47.0622 6.20755 46.4663 6.21558C46.1285 6.22094 45.9902 5.90495 46.1923 5.62913C46.5195 5.18729 46.8733 4.76687 47.2085 4.33038C47.4373 4.03313 47.7299 3.86443 48.097 3.80284C49.2435 3.60736 50.3687 3.29673 51.5471 3.30208C51.9089 3.30476 52.2706 3.19229 52.6324 3.1307C52.6962 3.11999 52.7574 3.08518 52.8186 3.06108C53.1751 2.90576 53.5315 2.74777 53.888 2.59513C54.138 2.48802 54.3827 2.32735 54.6434 2.29253C55.1435 2.22559 55.6516 2.22023 56.157 2.2122C56.2368 2.2122 56.3459 2.31931 56.3911 2.40232C56.5374 2.67011 56.6278 2.97538 56.8034 3.21639C57.0614 3.56987 57.2157 3.57522 57.6147 3.38777C57.6919 3.35028 57.785 3.34225 57.8701 3.32618C58.6442 3.1789 59.4183 3.03162 60.1924 2.88166C60.2349 2.87363 60.2801 2.85756 60.3147 2.83346C60.5116 2.70224 60.6286 2.563 60.4318 2.32467C60.3147 2.18274 60.2562 1.99797 60.1631 1.8373C59.9503 1.46776 59.7534 1.05804 59.2853 0.969676C58.7905 0.875951 58.2877 0.82775 57.7876 0.776871C57.0215 0.699213 56.2554 0.632267 55.4893 0.565321C55.2818 0.546576 55.0664 0.567998 54.8642 0.533186C54.3934 0.450173 53.9385 0.241301 53.4464 0.44214C53.3746 0.471596 53.2761 0.415361 53.1884 0.415361C52.9995 0.412683 52.808 0.418039 52.6191 0.42875C52.51 0.434106 52.4036 0.46624 52.2946 0.463562C51.8264 0.447495 51.3556 0.40465 50.8874 0.40465C50.3075 0.40465 49.7276 0.439462 49.145 0.463562C48.7274 0.482307 48.3045 0.476952 47.8895 0.535864C47.4798 0.594777 47.0861 0.843817 46.6605 0.570676C46.5887 0.525153 46.4637 0.551931 46.3652 0.559965C45.6763 0.632267 44.99 0.734025 44.2984 0.776871C43.8169 0.806327 43.3274 0.75277 42.8433 0.744736C42.7475 0.744736 42.6039 0.760804 42.5587 0.822394C42.1889 1.35796 41.8591 1.92299 41.8564 2.60049C41.8538 2.89505 41.6915 2.84417 41.5372 2.80936C41.4494 2.79061 41.3776 2.70492 41.2792 2.6353C40.8935 3.10392 40.9254 3.26727 41.4015 3.49489C41.4867 3.53505 41.5425 3.63949 41.6276 3.6743C41.8484 3.75999 42.0985 3.91531 42.3033 3.87514C42.6571 3.80552 43.0614 3.84836 43.2769 4.1215C43.4259 4.30895 43.3647 4.8231 43.1811 5.08285C42.8513 5.5488 42.5267 6.01742 42.2102 6.4914C42.0267 6.76454 41.7021 6.89575 41.4148 6.76454C40.8642 6.51014 40.3827 6.66546 39.9438 7.01626C39.856 7.08588 39.8161 7.23584 39.7842 7.35902C39.7097 7.62949 39.6725 7.91066 39.5847 8.17577C39.5155 8.38196 39.3932 8.56941 39.3027 8.77025C39.2282 8.93628 39.1883 9.15586 39.4357 9.13979C39.7789 9.11569 40.1194 9.00322 40.4572 8.91485C40.6647 8.8613 40.8642 8.74883 41.0743 8.71937C41.367 8.6792 41.492 8.83719 41.3856 9.12372C41.2393 9.52808 41.0557 9.91637 40.8881 10.3127C40.7817 10.5644 40.6115 10.6662 40.3242 10.6742C40.146 10.6796 39.9252 10.8054 39.8188 10.9473C39.7682 11.017 39.9092 11.2767 40.0156 11.4079C40.2471 11.6918 40.2683 11.7962 39.997 12.0506C39.8055 12.23 39.8374 12.3746 40.021 12.5139C40.271 12.704 40.279 12.8834 40.0742 13.1244C39.7895 13.4618 39.8135 13.6413 40.1167 13.9519C40.3668 14.209 40.6514 14.2973 41.0158 14.2384C41.234 14.2036 41.4707 14.3214 41.7021 14.3402C41.9123 14.3616 42.1384 14.3884 42.3352 14.3295C42.5134 14.2732 42.6651 14.1179 42.8167 13.9867C43.0056 13.826 43.1811 13.7216 43.4578 13.7296C43.8807 13.7403 44.3063 13.6546 44.732 13.6145C44.9155 13.5984 45.1017 13.6064 45.2853 13.5823C45.7082 13.5261 46.1285 13.4565 46.5515 13.4002C46.735 13.3761 46.9345 13.3253 47.0994 13.3761C47.5064 13.4993 47.7432 13.4618 48.0251 13.1646C48.2459 12.9316 48.4933 12.771 48.8444 12.8566C48.9801 12.8888 49.1291 12.8674 49.2701 12.8513C49.6079 12.8138 49.9457 12.7683 50.2836 12.7254C50.8661 12.6505 51.4513 12.5755 52.0339 12.4978C52.1297 12.4684 52.2148 12.4121 52.2972 12.4202ZM40.3189 24.8963C40.0582 24.7008 39.7523 24.5588 39.4011 24.4705C39.05 24.3821 38.6803 24.3393 38.2892 24.3393H36.6799V29.2478H38.4329C38.7947 29.2478 39.1405 29.1942 39.473 29.0898C39.8028 28.9827 40.0954 28.8273 40.3455 28.6211C40.5982 28.4149 40.7977 28.1606 40.9467 27.858C41.0956 27.5554 41.1701 27.2046 41.1701 26.8082C41.1701 26.361 41.093 25.9808 40.9387 25.6648C40.7897 25.3488 40.5822 25.0944 40.3189 24.8963ZM39.9252 27.4563C39.8347 27.6491 39.7124 27.8017 39.5581 27.9222C39.4012 28.04 39.2176 28.1231 39.0048 28.1739C38.792 28.2248 38.5606 28.2489 38.3132 28.2489H37.7572V25.3381H38.3903C38.6138 25.3381 38.8292 25.3676 39.0341 25.4238C39.2389 25.4827 39.4145 25.5684 39.5661 25.6835C39.7177 25.7987 39.8374 25.946 39.9278 26.1227C40.0183 26.2994 40.0635 26.511 40.0635 26.7493C40.0582 27.0305 40.013 27.2635 39.9252 27.4563ZM57.4551 25.2953H58.8437V29.2478H59.9157V25.2953H61.3043V24.3393H57.4525V25.2953H57.4551ZM46.9983 27.3144C46.9983 27.467 46.9744 27.6089 46.9265 27.7375C46.8786 27.866 46.8121 27.9811 46.7244 28.0749C46.6366 28.1686 46.5328 28.2436 46.4158 28.2971C46.2961 28.348 46.1657 28.3748 46.0248 28.3748C45.8811 28.3748 45.7508 28.348 45.6284 28.2971C45.506 28.2436 45.4023 28.1686 45.3145 28.0749C45.2267 27.9811 45.1602 27.8687 45.1124 27.7375C45.0645 27.6089 45.0405 27.467 45.0405 27.3144V24.3393H43.9685V27.3545C43.9685 27.6464 44.0111 27.9142 44.0989 28.1579C44.1866 28.4042 44.317 28.6158 44.4872 28.7952C44.6601 28.9746 44.8729 29.1165 45.131 29.2183C45.389 29.3201 45.6869 29.3709 46.0248 29.3709C46.3599 29.3709 46.6552 29.3201 46.9132 29.2183C47.1713 29.1165 47.3841 28.9746 47.557 28.7952C47.7299 28.6158 47.8576 28.4016 47.9453 28.1579C48.0331 27.9142 48.0757 27.6464 48.0757 27.3545V24.3393H47.0037V27.3144H46.9983ZM53.9412 28.2355C53.7709 28.3266 53.5767 28.3748 53.3559 28.3748C53.1618 28.3748 52.9835 28.3346 52.816 28.257C52.6484 28.1793 52.5021 28.0695 52.3797 27.9276C52.2547 27.7857 52.1589 27.6196 52.0871 27.4295C52.0153 27.2367 51.9807 27.0251 51.9807 26.7948C51.9807 26.5672 52.0153 26.3584 52.0871 26.1629C52.1589 25.9674 52.2573 25.8014 52.3824 25.6594C52.5074 25.5175 52.6563 25.4077 52.8293 25.3301C53.0022 25.2524 53.1884 25.2122 53.3905 25.2122C53.5927 25.2122 53.7709 25.2471 53.9225 25.3167C54.0768 25.3863 54.2072 25.4854 54.3109 25.6139L55.1355 24.9337C55.0291 24.7999 54.9121 24.6874 54.7791 24.5937C54.6461 24.5026 54.5078 24.4276 54.3641 24.3714C54.2205 24.3152 54.0742 24.275 53.9225 24.2509C53.7736 24.2268 53.6299 24.2134 53.4916 24.2134C53.1112 24.2134 52.7601 24.2723 52.4382 24.3928C52.1164 24.5133 51.8397 24.6847 51.6056 24.9096C51.3715 25.1346 51.1906 25.405 51.0576 25.7237C50.9273 26.0424 50.8608 26.3985 50.8608 26.7922C50.8608 27.1831 50.9273 27.5393 51.0576 27.858C51.188 28.1766 51.3715 28.4498 51.6056 28.672C51.8397 28.897 52.1164 29.0683 52.4382 29.1888C52.7601 29.3093 53.1086 29.3683 53.4916 29.3683C53.8268 29.3683 54.1513 29.2986 54.4679 29.1621C54.7844 29.0228 55.0451 28.8086 55.2526 28.5167L54.3588 27.8446C54.2497 28.0133 54.1088 28.1445 53.9412 28.2355ZM79.345 27.7508H79.3317L77.2621 24.3393H75.8044V29.2478H76.8764V25.7532H76.8897L79.0151 29.2478H80.417V24.3393H79.345V27.7508Z" fill="#9D9DA1"/>
</svg>
