<svg width="22" height="26" viewBox="0 0 22 26" fill="none" xmlns="http://www.w3.org/2000/svg">
<path fill-rule="evenodd" clip-rule="evenodd" d="M11.4218 0.505859C11.7849 0.505859 12.127 0.522768 12.4388 0.554702C17.8903 1.06941 21.9979 5.54022 21.9998 10.9578C21.9998 14.3334 20.2245 17.8049 16.8676 20.9983C14.4131 23.3333 11.9881 24.7048 11.8245 24.7973L11.8191 24.8004L11.4237 25.0202L11.0284 24.8004C10.9238 24.7422 8.46798 23.3652 5.97983 20.9983C2.62301 17.8068 0.847656 14.3334 0.847656 10.9578C0.847656 5.53834 4.9591 1.06753 10.4106 0.554702C10.7128 0.522768 11.0569 0.505859 11.4218 0.505859ZM7.69824 10.7866C7.69824 12.7928 9.35004 14.4252 11.3801 14.4252C13.4102 14.4252 15.062 12.7928 15.062 10.7866C15.062 8.78036 13.4102 7.14795 11.3801 7.14795C9.35004 7.14795 7.69824 8.78036 7.69824 10.7866Z" fill="#DDB472"/>
</svg>
