<svg width="60" height="60" viewBox="0 0 60 60" fill="none" xmlns="http://www.w3.org/2000/svg">
<path d="M60 53.565L44.7479 38.2772C47.4027 34.3561 48.9534 29.6226 48.9534 24.5309C48.9534 10.9829 37.9898 0 24.4735 0C10.9572 0 0 10.9829 0 24.5309C0 38.0789 10.9572 49.0682 24.4735 49.0682C29.6299 49.0682 34.4097 47.4627 38.3535 44.7377L53.5801 60L60 53.565ZM24.4735 29.2836L17.4537 36.3198L12.7186 31.5672L19.7384 24.5309L12.7186 17.4947L17.4537 12.7484L24.4735 19.7846L31.4933 12.7484L36.2348 17.4947L29.2151 24.5309L36.2348 31.5672L31.4933 36.3198L24.4735 29.2836Z" fill="#DDB472"/>
</svg>
