<svg width="28" height="28" viewBox="0 0 28 28" fill="none" xmlns="http://www.w3.org/2000/svg">
<path fill-rule="evenodd" clip-rule="evenodd" d="M23.1152 3.95101C20.5717 1.40451 17.189 0.00149345 13.5853 0C6.1595 0 0.115992 6.04334 0.113005 13.4711C0.112009 15.8455 0.73229 18.1634 1.91129 20.2064L0 27.1875L7.14186 25.314C9.10974 26.3875 11.3252 26.9532 13.5798 26.9539H13.5855C21.0104 26.9539 27.0546 20.91 27.0574 13.4819C27.0589 9.88202 25.6589 6.49735 23.1152 3.95101ZM13.5853 24.6787H13.5806C11.5715 24.6778 9.60092 24.1379 7.88146 23.1178L7.47275 22.8751L3.23466 23.9869L4.36586 19.8548L4.09953 19.4312C2.97861 17.6483 2.38671 15.5877 2.3877 13.4719C2.39002 7.29818 7.41334 2.27536 13.5898 2.27536C16.5807 2.27636 19.3922 3.44258 21.5062 5.55913C23.6203 7.67569 24.7839 10.489 24.7829 13.4811C24.7802 19.6553 19.7572 24.6787 13.5853 24.6787ZM19.7274 16.2923C19.3908 16.1237 17.7358 15.3096 17.4271 15.1971C17.1188 15.0847 16.8941 15.0288 16.6699 15.3656C16.4454 15.7025 15.8004 16.4608 15.6039 16.6854C15.4075 16.91 15.2113 16.9383 14.8746 16.7697C14.5379 16.6012 13.4534 16.2456 12.1675 15.0988C11.1669 14.2062 10.4914 13.1039 10.2949 12.767C10.0987 12.4298 10.2932 12.2652 10.4426 12.08C10.807 11.6275 11.1719 11.1531 11.284 10.9286C11.3964 10.7039 11.3401 10.5073 11.2558 10.3388C11.1719 10.1704 10.4987 8.51352 10.2182 7.8393C9.94475 7.18318 9.66746 7.27179 9.4607 7.2615C9.26456 7.25171 9.04005 7.24972 8.81553 7.24972C8.59118 7.24972 8.22644 7.33385 7.9178 7.67104C7.60932 8.00807 6.73979 8.82233 6.73979 10.4792C6.73979 12.1361 7.94601 13.7368 8.11427 13.9615C8.28253 14.1862 10.488 17.5862 13.8647 19.0442C14.6679 19.3913 15.2948 19.5983 15.7838 19.7534C16.5903 20.0096 17.3239 19.9734 17.904 19.8868C18.5509 19.7901 19.8955 19.0724 20.1762 18.2862C20.4567 17.4998 20.4567 16.8259 20.3724 16.6854C20.2884 16.545 20.0639 16.4608 19.7274 16.2923Z" fill="#DDB472"/>
</svg>
